<?xml version="1.0" standalone="no"?>
<!DOCTYPE svg PUBLIC "-//W3C//DTD SVG 20010904//EN"
 "http://www.w3.org/TR/2001/REC-SVG-20010904/DTD/svg10.dtd">
<svg version="1.0" xmlns="http://www.w3.org/2000/svg"
 width="820.000000pt" height="500.000000pt" viewBox="0 0 820.000000 500.000000"
 preserveAspectRatio="xMidYMid meet">

<g transform="translate(0.000000,500.000000) scale(0.100000,-0.100000)"
fill="#000000" stroke="none">
<path d="M3960 4594 c-429 -27 -870 -203 -1195 -476 -129 -109 -152 -131 -251
-244 -256 -290 -427 -660 -494 -1069 -7 -38 -10 -83 -9 -100 l4 -30 523 0 523
0 25 75 c89 264 272 480 510 602 206 106 426 144 640 111 143 -22 238 -57 404
-148 176 -97 356 -327 439 -560 l28 -80 534 -2 c506 -3 588 1 553 25 -6 4 -14
34 -18 67 -44 366 -224 783 -467 1073 -177 213 -417 407 -644 520 -320 159
-571 225 -900 235 -82 2 -175 3 -205 1z"/>
<path d="M3949 3210 c-194 -31 -389 -144 -509 -295 -127 -160 -187 -365 -161
-559 29 -222 135 -398 321 -536 78 -57 105 -71 190 -99 107 -36 196 -51 295
-51 260 0 484 107 646 307 70 88 87 119 125 233 27 79 29 95 29 240 -1 144 -3
160 -28 230 -37 99 -60 141 -125 228 -93 125 -258 234 -427 283 -81 23 -268
33 -356 19z"/>
<path d="M2025 2183 c20 -167 107 -437 198 -615 238 -467 605 -804 1092 -1003
170 -70 329 -112 540 -142 134 -19 362 -28 378 -15 7 6 46 13 87 17 113 10
318 52 375 75 11 5 31 12 45 15 110 29 378 156 499 236 451 301 751 724 890
1252 16 62 33 140 37 175 l7 62 -532 0 c-417 0 -532 -3 -535 -12 -2 -7 -12
-40 -21 -73 -84 -294 -330 -560 -623 -674 -155 -61 -434 -82 -594 -46 -154 35
-299 99 -403 179 -71 54 -196 180 -234 236 -76 110 -155 284 -163 360 l-3 25
-524 3 -523 2 7 -57z"/>
</g>
</svg>
